<?xml version="1.0" standalone="no"?>
<!DOCTYPE svg PUBLIC "-//W3C//DTD SVG 20010904//EN"
 "http://www.w3.org/TR/2001/REC-SVG-20010904/DTD/svg10.dtd">
<svg version="1.0" xmlns="http://www.w3.org/2000/svg"
 width="1280.000000pt" height="807.000000pt" viewBox="0 0 1280.000000 807.000000"
 preserveAspectRatio="xMidYMid meet">
<metadata>
Created by potrace 1.15, written by Peter Selinger 2001-2017
</metadata>
<g transform="translate(0.000000,807.000000) scale(0.100000,-0.100000)"
fill="#000000" stroke="none">
<path d="M3195 8052 c-22 -11 -55 -36 -74 -55 l-34 -36 48 25 c57 28 85 29
259 9 150 -18 262 -52 404 -124 53 -27 126 -57 162 -66 78 -20 96 -29 110 -56
16 -29 -10 -65 -52 -74 -83 -16 -100 -26 -118 -69 -10 -22 -24 -77 -30 -121
-20 -133 -1 -222 69 -325 22 -32 54 -86 71 -120 17 -34 42 -73 55 -86 24 -24
75 -33 75 -14 0 6 -25 49 -55 97 -30 48 -58 102 -61 121 -15 81 40 204 114
255 59 40 108 50 228 45 101 -4 117 -7 214 -47 77 -32 156 -54 292 -81 214
-43 283 -71 395 -156 124 -95 216 -225 323 -460 172 -377 191 -614 71 -879
-70 -153 -204 -299 -388 -424 -90 -61 -160 -86 -350 -125 -268 -55 -335 -86
-503 -228 -202 -170 -494 -317 -660 -333 -98 -8 -135 -21 -160 -52 -47 -59
-17 -116 98 -190 48 -30 130 -83 182 -118 52 -35 136 -86 186 -113 50 -28 141
-82 203 -121 214 -134 642 -276 696 -231 38 31 10 96 -71 165 -121 103 -153
280 -89 483 33 104 69 156 182 260 52 48 140 140 196 205 219 257 322 326 680
456 93 34 199 74 235 90 70 31 149 49 322 76 222 35 286 91 266 229 -15 99
-149 264 -293 364 -49 33 -111 80 -139 104 -27 24 -83 72 -125 106 -128 103
-173 195 -173 352 0 67 5 96 22 134 71 158 161 185 423 130 99 -21 170 -28
351 -34 493 -19 855 -89 1518 -295 135 -42 416 -128 625 -191 626 -189 890
-282 1400 -491 660 -272 927 -401 1254 -607 605 -381 715 -459 882 -626 146
-145 213 -234 239 -316 29 -95 46 -124 75 -124 29 0 55 24 55 52 0 22 -51 149
-106 265 -39 82 -80 127 -348 383 -220 211 -317 289 -655 527 -296 209 -382
274 -621 473 -278 231 -402 317 -600 415 -240 120 -425 165 -820 200 -413 37
-632 92 -1256 320 -453 166 -680 227 -1034 280 -96 15 -249 38 -340 51 -226
35 -628 119 -970 203 -157 39 -368 91 -470 116 -443 109 -786 172 -1173 215
-406 46 -510 65 -742 133 -116 34 -229 53 -365 63 -51 4 -74 1 -105 -14z"/>
<path d="M2727 7863 c-7 -88 -17 -108 -161 -322 -169 -253 -260 -352 -431
-471 -77 -54 -175 -116 -217 -140 -112 -61 -176 -136 -238 -283 -79 -186 -129
-279 -178 -331 l-47 -48 50 7 c85 12 276 118 349 193 43 45 44 65 4 154 -19
42 -19 50 -7 80 33 81 153 174 345 271 98 49 125 69 224 163 131 126 184 192
234 291 63 125 87 214 93 343 6 135 -10 210 -20 93z"/>
<path d="M3252 7788 c4 -8 2 -49 -2 -92 -16 -140 -67 -197 -350 -391 -63 -44
-162 -114 -220 -157 -90 -67 -126 -86 -255 -137 -82 -32 -195 -73 -250 -91
-92 -30 -106 -39 -166 -97 -54 -52 -69 -73 -78 -111 -7 -26 -14 -54 -17 -63
-3 -11 7 -24 28 -37 l32 -20 62 23 c72 27 129 62 164 100 40 43 147 101 265
144 147 53 307 139 370 199 27 27 79 66 114 87 65 39 213 157 263 212 48 51
79 144 81 242 1 88 -16 186 -36 198 -6 4 -8 0 -5 -9z"/>
<path d="M148 7760 c-52 -28 -55 -39 -7 -26 36 9 51 7 122 -18 187 -65 288
-125 417 -246 36 -33 88 -74 116 -90 73 -43 90 -64 78 -98 -9 -25 -15 -27 -74
-33 -36 -3 -73 -9 -83 -13 -23 -11 -94 -159 -108 -227 -15 -68 -7 -144 24
-249 14 -47 28 -101 32 -121 6 -41 39 -89 61 -89 19 0 18 26 -7 106 -28 91
-27 138 4 199 31 61 68 97 127 124 54 25 102 26 183 5 77 -20 130 -46 187 -94
67 -55 142 -101 265 -161 61 -30 112 -55 115 -56 3 -2 18 20 34 49 39 69 94
128 164 174 70 47 112 84 112 99 0 11 -281 155 -455 233 -55 24 -190 80 -300
124 -248 99 -414 178 -526 250 -103 67 -156 95 -274 142 -101 41 -152 45 -207
16z"/>
<path d="M3200 7275 c-14 -23 -67 -66 -148 -121 -70 -47 -172 -116 -227 -155
-61 -42 -157 -95 -248 -135 -81 -37 -168 -81 -195 -99 -26 -17 -78 -52 -116
-78 -39 -26 -79 -47 -91 -47 -28 0 -60 -24 -51 -38 4 -7 32 -12 63 -12 48 0
76 9 182 59 122 57 164 75 451 196 74 31 187 84 250 118 63 33 140 74 170 89
72 38 78 50 46 97 -19 27 -26 50 -26 83 0 86 -23 102 -60 43z"/>
<path d="M3437 7241 c-12 -58 -74 -135 -169 -211 -100 -80 -88 -74 -458 -230
-146 -62 -313 -136 -371 -166 -61 -30 -144 -63 -193 -75 -78 -20 -90 -26 -121
-63 -18 -23 -42 -64 -52 -91 -21 -56 -34 -62 -126 -64 -67 -1 -76 -5 -174 -78
-58 -42 -73 -58 -73 -79 0 -24 3 -26 28 -21 15 3 56 9 92 12 148 16 458 113
510 160 11 10 27 37 36 61 14 37 25 47 88 80 39 20 130 70 202 110 97 53 163
82 250 108 78 22 161 57 238 98 108 57 126 70 191 145 91 104 125 185 116 278
-6 56 -7 58 -14 26z"/>
<path d="M3498 7109 c-10 -5 -22 -29 -29 -52 -6 -23 -25 -61 -42 -85 -31 -42
-180 -172 -198 -172 -5 0 -9 -8 -9 -18 0 -14 14 -20 70 -30 95 -16 183 -16
178 1 -3 6 -13 14 -24 16 -30 5 -54 32 -54 60 0 37 70 103 143 136 86 40 156
43 241 10 38 -14 71 -23 74 -20 11 11 -43 51 -103 78 -74 33 -214 87 -223 87
-4 0 -15 -5 -24 -11z"/>
<path d="M6279 6955 c-27 -15 -43 -40 -34 -55 3 -4 18 -76 35 -160 18 -92 41
-174 58 -208 35 -73 138 -177 267 -270 55 -40 134 -100 176 -135 42 -34 107
-84 145 -112 38 -27 82 -70 99 -93 28 -41 30 -50 30 -135 0 -92 0 -92 -59
-212 -51 -105 -68 -129 -135 -195 -58 -56 -104 -90 -186 -134 -283 -153 -324
-185 -505 -396 -162 -188 -241 -249 -422 -321 -192 -76 -223 -92 -378 -195
-97 -64 -162 -113 -172 -132 -38 -64 -13 -148 62 -216 56 -51 75 -56 203 -56
62 0 130 -5 152 -11 22 -6 103 -42 180 -80 148 -74 338 -134 385 -122 78 19
67 50 -42 125 -111 77 -130 100 -136 173 -4 47 0 64 26 118 17 34 61 98 98
142 36 44 97 126 135 182 93 138 195 258 325 383 273 262 474 391 959 610 265
121 392 157 586 167 140 8 263 -9 484 -64 278 -69 426 -131 705 -294 150 -87
349 -187 605 -304 476 -216 735 -372 1260 -755 264 -193 316 -233 720 -565
437 -358 425 -349 432 -341 11 10 -144 162 -354 347 -106 93 -331 303 -500
467 -546 526 -729 679 -1118 935 -378 248 -636 379 -1450 737 -209 92 -497
223 -640 290 -517 244 -603 284 -791 365 -105 46 -282 117 -392 159 -236 88
-265 102 -442 214 -218 138 -317 177 -371 147z"/>
<path d="M3025 6687 c-51 -13 -139 -51 -241 -103 -89 -46 -190 -90 -225 -99
-75 -20 -115 -39 -128 -62 -5 -10 -7 -89 -4 -193 l6 -175 -28 -33 c-34 -41
-40 -37 -19 14 17 40 15 103 -7 205 l-10 45 -127 -43 c-203 -69 -219 -78 -241
-137 -24 -66 -103 -134 -341 -293 -219 -147 -240 -165 -233 -207 7 -45 -12
-90 -35 -81 -9 4 -23 9 -31 13 -12 4 -13 -13 -8 -114 4 -65 13 -145 21 -177
l14 -57 -50 -55 c-53 -58 -54 -62 -13 -43 49 22 77 97 84 228 l7 115 16 -35
c10 -19 20 -66 24 -105 l7 -70 19 60 c11 34 22 104 25 163 5 78 9 102 20 102
26 0 46 -69 40 -143 l-4 -68 34 58 c34 56 35 60 34 155 l-2 98 35 0 c31 0 38
-5 56 -41 13 -24 19 -49 15 -62 -6 -21 -6 -22 9 -3 11 14 16 42 16 93 0 40 3
73 8 73 4 0 30 20 59 45 40 35 65 48 115 60 89 20 336 113 378 142 l35 23 6
-34 c3 -19 12 -43 20 -52 18 -22 137 -99 168 -109 34 -10 19 9 -27 35 -21 12
-48 36 -61 55 -43 63 -37 155 10 155 27 0 97 -36 137 -71 18 -16 59 -42 90
-58 31 -16 82 -46 112 -66 90 -61 96 -60 42 1 -60 68 -152 211 -152 235 0 24
33 49 73 56 35 5 56 0 130 -31 20 -9 37 -12 37 -8 0 5 -45 28 -100 52 -74 32
-100 48 -100 61 0 25 37 33 108 24 105 -13 154 -52 192 -151 37 -99 43 -176
25 -320 -28 -229 -73 -357 -214 -599 -32 -55 -73 -129 -91 -165 -33 -67 -110
-181 -110 -164 0 5 7 19 15 31 8 12 37 73 64 135 27 62 85 184 129 271 106
207 116 237 147 418 31 189 31 193 -1 258 -21 41 -42 63 -97 102 -38 27 -76
49 -83 49 -31 0 -25 -25 13 -59 68 -60 97 -114 98 -182 0 -74 -27 -115 -74
-112 -36 1 -146 80 -248 176 -39 37 -68 57 -80 55 -31 -6 -20 -34 26 -69 24
-19 49 -41 54 -50 14 -22 1 -66 -29 -96 -35 -35 -60 -26 -177 64 -61 46 -94
66 -87 52 19 -34 7 -108 -30 -188 -29 -61 -48 -85 -128 -159 -209 -192 -438
-493 -536 -705 -100 -214 -126 -340 -133 -642 -7 -291 7 -503 52 -776 61 -368
97 -504 175 -659 97 -192 266 -374 475 -511 211 -139 315 -195 315 -171 0 5
-16 30 -35 55 -59 77 -85 142 -117 285 -38 179 -49 409 -24 550 15 84 86 324
152 510 23 63 28 71 42 60 13 -12 14 -11 2 9 -12 19 -9 29 34 105 58 100 106
165 192 261 36 39 93 113 127 162 33 50 89 127 123 172 34 45 72 108 83 140
33 88 51 119 103 170 38 37 60 50 125 69 l78 23 -47 0 c-26 1 -60 -4 -75 -11
-39 -17 -236 -152 -306 -210 -33 -26 -70 -51 -83 -54 -77 -19 -153 40 -218
168 -34 67 -40 89 -44 160 l-4 83 21 -22 c25 -26 22 -25 79 -27 33 -2 50 -9
76 -35 19 -19 40 -47 47 -62 6 -16 18 -29 25 -29 25 0 15 40 -27 110 -43 72
-44 95 -11 133 22 25 53 21 99 -12 67 -48 95 -146 57 -199 -9 -13 -13 -26 -9
-30 8 -8 42 33 56 68 13 32 2 110 -23 167 -22 49 -26 132 -9 176 6 15 22 32
35 38 21 10 32 7 71 -15 25 -15 56 -44 70 -66 24 -38 43 -56 50 -48 3 2 -17
46 -43 97 -41 81 -47 102 -50 167 -4 68 -1 81 27 138 17 35 43 72 58 81 58 38
155 12 200 -54 30 -43 59 -59 76 -42 7 7 -3 25 -35 59 -118 126 -128 259 -29
356 58 57 115 69 236 51 112 -17 147 -31 229 -88 87 -62 90 -64 74 -38 -7 12
-91 83 -187 159 -137 108 -179 147 -202 187 -33 57 -39 127 -15 174 22 42 81
89 122 97 62 11 179 -4 246 -32 175 -73 352 -27 518 134 l85 83 -68 -51 c-127
-94 -175 -108 -308 -90 -109 15 -231 57 -338 118 -47 27 -129 66 -181 86 -52
21 -136 62 -187 92 -195 117 -268 133 -428 91z"/>
<path d="M2015 6536 c-47 -21 -114 -82 -152 -136 l-16 -23 39 7 c54 10 104 26
104 35 0 4 23 33 50 66 70 83 65 94 -25 51z"/>
<path d="M1315 6429 c-24 -42 -35 -72 -35 -101 0 -22 -7 -68 -16 -102 -37
-141 10 -485 82 -605 l34 -56 0 38 c0 25 10 53 32 86 29 43 46 55 142 103 60
29 135 73 166 98 31 25 93 69 138 99 80 52 82 55 100 115 11 33 18 62 17 63
-1 2 -17 -2 -36 -7 -18 -6 -57 -10 -86 -10 -28 0 -89 -9 -134 -20 -84 -20 -98
-17 -99 17 0 24 70 123 98 137 26 15 25 15 -43 16 -62 0 -76 -4 -125 -34 -34
-21 -75 -36 -107 -40 l-52 -7 -31 42 c-34 48 -38 92 -16 177 8 28 13 52 11 52
-2 0 -20 -27 -40 -61z"/>
<path d="M7910 6461 c0 -16 104 -63 310 -141 91 -35 260 -101 375 -147 116
-46 329 -131 475 -188 331 -129 416 -166 588 -255 202 -105 418 -237 578 -354
78 -56 181 -123 230 -148 91 -47 305 -119 542 -183 176 -48 255 -76 386 -141
186 -93 387 -237 624 -450 41 -36 76 -63 79 -60 24 24 -531 594 -753 772 -209
169 -371 274 -652 424 -294 157 -536 259 -862 363 -560 179 -767 239 -1200
352 -162 42 -356 94 -430 116 -143 42 -290 62 -290 40z"/>
<path d="M3579 6138 c-16 -30 -5 -109 22 -156 12 -21 43 -53 68 -70 195 -137
321 -248 321 -284 0 -41 -38 -29 -144 48 -33 24 -70 44 -81 44 -12 0 -43 7
-69 16 -53 18 -188 16 -208 -4 -19 -19 29 -69 170 -174 75 -56 160 -123 188
-149 29 -26 86 -70 127 -97 138 -94 176 -150 177 -261 0 -60 1 -63 18 -49 9 9
31 23 49 32 17 8 48 31 68 51 21 19 56 40 79 46 22 6 82 31 132 55 50 24 99
44 108 44 9 0 39 11 66 25 27 14 57 25 67 25 10 0 41 14 68 30 28 16 61 30 75
30 69 1 250 73 250 99 0 8 -300 149 -545 256 -143 63 -363 151 -495 197 -113
40 -189 79 -352 182 -76 47 -140 86 -142 86 -3 0 -10 -10 -17 -22z"/>
<path d="M7927 5435 c-210 -34 -354 -83 -582 -199 -189 -96 -312 -175 -495
-320 -74 -59 -174 -134 -222 -166 -48 -33 -96 -73 -108 -88 l-22 -27 26 -3
c14 -2 79 19 148 49 212 90 239 99 419 144 391 99 643 135 931 135 368 0 625
-44 1093 -185 705 -213 863 -288 1115 -530 171 -164 231 -194 447 -226 223
-32 293 -65 457 -219 202 -190 261 -220 491 -250 116 -16 189 -40 278 -94 134
-81 207 -110 207 -82 0 20 -87 97 -288 252 -97 76 -253 197 -347 269 -389 302
-594 429 -1250 775 -267 141 -374 201 -697 392 -249 147 -509 257 -728 308
-230 53 -380 73 -585 76 -140 2 -227 -1 -288 -11z"/>
<path d="M5473 5209 c-21 -28 -50 -69 -65 -91 -14 -21 -68 -83 -120 -136 l-93
-97 140 -6 c150 -7 279 -32 500 -96 66 -19 127 -37 135 -39 9 -3 57 38 124
105 94 95 107 111 90 117 -10 4 -165 72 -342 151 -178 79 -325 143 -327 143
-2 0 -20 -23 -42 -51z"/>
<path d="M7815 4823 c-116 -10 -288 -38 -430 -69 -88 -19 -230 -50 -315 -69
-227 -49 -295 -75 -398 -153 -60 -45 -100 -89 -162 -182 -49 -72 -160 -285
-160 -306 0 -8 37 15 83 50 246 190 460 307 647 355 137 35 219 46 525 67 641
45 1122 -1 1590 -153 209 -68 363 -135 593 -256 97 -52 277 -144 398 -206 292
-147 409 -225 549 -365 97 -97 117 -124 162 -211 28 -55 83 -181 123 -279 82
-205 96 -236 112 -236 7 0 9 30 5 98 -9 157 -104 440 -206 612 -111 187 -296
388 -451 490 -52 34 -219 124 -370 200 -151 75 -358 183 -459 238 -278 153
-474 230 -767 302 -242 60 -452 80 -794 78 -129 -1 -253 -3 -275 -5z"/>
<path d="M6733 4676 c-57 -14 -286 -151 -281 -168 2 -6 20 -20 40 -31 l35 -21
158 99 158 98 -23 19 c-12 10 -25 18 -29 17 -3 0 -29 -6 -58 -13z"/>
<path d="M3458 4500 c-128 -12 -188 -64 -218 -184 -24 -94 -42 -121 -131 -192
-87 -69 -188 -187 -258 -301 -30 -48 -74 -118 -97 -155 -72 -110 -60 -165 47
-218 32 -17 91 -58 130 -93 39 -34 103 -88 142 -121 40 -32 92 -77 117 -101
25 -23 55 -48 68 -54 20 -11 22 -9 22 13 0 14 -11 46 -24 71 -24 44 -63 191
-54 201 3 2 13 -25 22 -60 20 -72 41 -96 105 -122 58 -23 71 -56 71 -179 0
-112 -29 -254 -90 -440 -22 -66 -44 -142 -50 -170 -6 -27 -22 -78 -35 -112
-40 -100 -31 -143 30 -143 31 0 40 5 143 77 100 70 482 484 609 660 91 125 70
282 -91 685 -55 139 -122 331 -165 476 -66 223 -72 248 -69 321 5 145 -19 160
-224 141z"/>
<path d="M7011 4387 l-183 -81 103 -49 104 -49 190 47 c105 26 196 51 203 55
13 7 -64 61 -188 133 l-45 26 -184 -82z"/>
<path d="M7823 4379 c-107 -10 -201 -32 -378 -92 -71 -25 -184 -57 -250 -72
-293 -66 -425 -119 -581 -231 -43 -32 -131 -92 -194 -135 -123 -82 -156 -111
-145 -128 24 -39 164 22 375 162 139 94 242 140 402 183 217 57 323 92 505
166 220 88 330 116 505 128 203 13 210 30 13 28 -88 0 -201 -4 -252 -9z"/>
<path d="M509 4337 c-66 -25 -111 -59 -156 -121 -47 -63 -98 -155 -90 -162 2
-2 22 19 43 48 28 38 56 61 98 82 72 36 135 42 246 23 120 -22 144 -3 91 73
-37 53 -160 83 -232 57z"/>
<path d="M798 4183 c-9 -10 -26 -41 -38 -70 -32 -76 -49 -88 -123 -86 -47 2
-75 -4 -114 -21 -66 -31 -86 -61 -88 -139 -2 -34 -6 -87 -9 -117 -5 -39 -3
-67 8 -97 18 -51 75 -140 94 -148 26 -10 23 26 -7 72 -35 52 -42 121 -16 143
17 14 20 9 30 -61 6 -49 64 -153 91 -163 18 -7 44 10 44 27 0 5 -12 26 -26 45
-33 43 -64 122 -64 163 0 103 126 156 217 90 75 -54 91 -145 48 -266 -30 -84
-30 -104 -6 -223 22 -106 66 -206 116 -268 39 -47 119 -104 147 -104 24 0 23
23 -3 46 -12 10 -32 38 -46 61 -23 39 -23 44 -9 71 24 47 57 62 129 61 72 -2
88 5 169 67 31 25 73 51 92 59 46 20 60 46 47 88 -6 18 -15 73 -21 122 -5 50
-14 115 -20 144 -16 85 -12 176 11 253 28 91 23 182 -10 209 -32 26 -51 13
-91 -63 -18 -35 -45 -81 -60 -103 -15 -22 -44 -71 -64 -110 -20 -38 -54 -99
-75 -135 -87 -144 -103 -159 -131 -125 -10 13 -10 41 5 148 9 72 17 150 17
173 -3 151 -177 333 -244 257z"/>
<path d="M7430 4146 l-164 -42 124 -66 c168 -88 319 -178 486 -290 189 -127
578 -412 754 -551 80 -63 147 -113 149 -111 2 2 -14 24 -35 50 -94 111 -144
179 -144 195 0 19 -345 353 -523 507 -215 186 -435 353 -464 351 -10 0 -92
-20 -183 -43z"/>
<path d="M465 4141 c-44 -21 -90 -66 -125 -124 -28 -47 -20 -60 11 -16 12 18
46 43 78 58 47 21 73 26 169 29 95 4 112 7 108 19 -3 8 -6 16 -6 19 0 2 -13
10 -30 19 -42 22 -154 19 -205 -4z"/>
<path d="M3885 4080 c-14 -15 -19 -36 -19 -78 1 -71 82 -312 178 -524 108
-240 151 -400 135 -501 -19 -116 -135 -287 -269 -395 -30 -25 -56 -49 -58 -53
-8 -21 32 -19 80 5 126 60 347 104 472 92 38 -4 128 -21 200 -40 178 -45 299
-63 331 -48 42 19 41 52 -5 153 l-42 91 -8 232 c-6 169 -12 244 -24 281 -34
104 -16 172 59 223 60 42 103 24 145 -58 20 -39 82 -93 122 -106 12 -4 26 0
36 9 13 13 13 22 3 60 -12 40 -11 48 8 85 27 54 67 84 105 80 23 -2 40 -15 68
-53 25 -33 55 -58 89 -75 69 -33 89 -62 99 -147 10 -77 41 -197 61 -234 31
-59 83 -129 96 -129 25 0 25 28 -1 67 -32 47 -33 95 -5 205 17 66 21 102 17
183 -10 201 -72 272 -301 341 -45 13 -115 37 -157 53 -129 50 -182 56 -315 37
-156 -23 -241 -12 -544 69 -286 76 -397 116 -453 161 -49 39 -77 43 -103 14z"/>
<path d="M6413 3578 c-15 -20 -25 -38 -20 -38 3 0 12 11 21 25 17 26 16 35 -1
13z"/>
<path d="M8662 3555 c-7 -22 -17 -79 -24 -128 -10 -76 -10 -91 5 -122 9 -19
28 -42 42 -51 48 -31 132 -149 145 -203 13 -55 3 -127 -26 -183 -9 -17 -22
-52 -30 -79 -15 -51 -36 -69 -78 -69 -29 0 -48 27 -39 58 5 22 -50 154 -73
173 -20 17 -17 -1 7 -40 19 -32 20 -44 14 -144 -8 -121 -21 -147 -72 -147 -16
0 -77 -9 -138 -20 -60 -11 -122 -20 -137 -20 -50 0 -78 79 -40 112 19 18 135
44 234 54 105 10 70 24 -60 24 -127 0 -211 -17 -312 -64 -47 -22 -69 -26 -156
-26 -85 0 -103 3 -117 18 -25 27 -22 38 24 87 27 29 57 49 89 60 56 19 100 50
100 71 0 18 -3 18 -53 -8 -60 -30 -305 -108 -341 -108 -36 0 -76 24 -76 46 0
33 31 73 65 84 29 9 44 9 80 -4 49 -16 57 -8 24 25 -18 18 -28 20 -82 14 -33
-4 -84 -15 -113 -25 -28 -10 -76 -23 -107 -30 -50 -10 -60 -9 -97 10 -53 27
-67 60 -43 108 35 70 56 77 223 77 82 0 144 3 137 7 -7 5 -41 17 -76 28 -73
23 -160 25 -211 5 -192 -75 -208 -78 -261 -42 -61 41 -45 119 41 202 23 22 46
48 52 58 8 16 7 17 -9 9 -10 -6 -29 -22 -43 -37 -28 -31 -100 -69 -147 -79
-44 -10 -108 10 -132 41 -44 55 -17 153 54 194 46 27 45 33 -2 13 -54 -22
-329 -92 -394 -100 -93 -11 -158 41 -130 102 l12 26 -31 -26 c-44 -37 -102
-51 -210 -51 -52 0 -101 -4 -107 -8 -7 -5 -13 -20 -13 -34 0 -20 19 -44 73
-96 85 -82 136 -116 272 -184 121 -61 202 -91 360 -132 66 -18 156 -44 200
-58 154 -49 651 -232 767 -282 224 -96 456 -155 608 -155 110 0 174 16 300 76
76 36 99 54 215 172 160 162 265 248 355 292 38 18 74 42 79 53 15 28 14 70
-5 124 -20 58 -38 73 -29 23 9 -47 1 -77 -31 -115 -28 -34 -162 -101 -201
-101 -30 0 -61 33 -102 111 -29 53 -40 64 -89 87 -100 48 -158 169 -132 276
16 66 9 109 -8 51z"/>
<path d="M2552 3433 c-96 -203 -185 -553 -185 -728 0 -87 6 -123 46 -277 61
-233 116 -359 198 -452 16 -19 29 -44 29 -56 0 -15 -43 -66 -134 -159 -101
-102 -152 -165 -209 -252 -45 -70 -114 -158 -171 -217 -106 -113 -137 -160
-161 -246 -24 -84 -84 -145 -192 -197 -90 -44 -127 -79 -143 -137 -21 -77 -4
-117 19 -42 19 63 120 131 164 108 24 -12 21 -31 -9 -59 -15 -13 -47 -55 -72
-94 -25 -38 -75 -104 -111 -146 -174 -201 -178 -207 -141 -267 17 -28 25 -32
63 -32 54 0 73 -15 80 -64 4 -21 14 -47 24 -58 18 -20 18 -18 23 58 l5 79 30
-2 c17 -1 46 -5 66 -9 29 -5 44 -1 76 20 33 22 45 25 66 17 25 -10 26 -12 24
-88 -2 -64 2 -84 18 -108 l20 -30 5 98 c6 112 15 126 93 149 25 7 57 27 78 50
26 27 44 38 65 38 42 0 139 27 206 57 55 24 74 41 151 138 37 46 93 62 161 46
97 -22 143 -79 133 -164 l-6 -50 20 19 c45 41 61 103 38 147 -7 12 -35 45 -64
72 -44 42 -55 59 -64 103 -17 83 -13 132 14 177 21 34 25 53 25 120 1 160 64
279 217 403 117 95 142 121 180 187 37 63 62 73 146 56 77 -15 176 -6 230 21
101 51 147 217 83 303 -13 18 -15 14 -13 -45 2 -76 -19 -121 -74 -158 -31 -22
-42 -23 -145 -20 -115 3 -144 13 -144 49 0 19 11 24 80 34 87 14 116 40 184
162 42 76 66 137 80 206 10 44 -9 31 -35 -25 -13 -28 -53 -86 -89 -128 -36
-41 -72 -85 -80 -96 -32 -45 -92 -56 -155 -30 -44 19 -68 59 -95 160 -31 112
-25 277 14 421 23 84 28 122 29 235 1 121 -1 142 -24 206 -52 143 -159 263
-312 349 -47 26 -134 90 -194 141 -59 51 -111 93 -114 94 -3 0 -24 -39 -47
-87z"/>
<path d="M4920 3419 c-13 -6 -28 -15 -32 -22 -12 -17 -1 -94 34 -237 31 -125
31 -125 14 -195 -22 -96 -21 -117 14 -178 57 -102 122 -264 150 -374 32 -125
74 -215 126 -272 54 -60 90 -73 236 -81 124 -7 132 -9 206 -46 87 -45 122 -86
122 -144 0 -47 -26 -81 -76 -99 -22 -7 -45 -18 -52 -24 -17 -14 -52 -82 -52
-102 0 -27 21 -16 35 18 11 27 26 39 77 60 111 47 121 39 112 -99 -13 -209
-84 -371 -238 -544 -45 -50 -57 -71 -71 -129 -9 -38 -15 -80 -12 -92 3 -19 5
-17 6 9 2 46 31 72 74 65 41 -6 118 25 159 64 45 43 51 18 13 -53 -27 -51 -35
-77 -35 -119 0 -62 17 -84 22 -28 l3 38 55 5 c62 6 173 61 228 113 28 27 32
38 32 81 0 63 12 86 37 70 16 -10 18 -26 15 -149 -2 -99 -7 -146 -18 -167 -19
-37 -10 -68 21 -68 17 0 36 16 67 58 24 31 49 69 55 84 22 49 44 196 38 241
-7 43 8 121 27 144 16 20 35 4 42 -36 4 -28 16 -46 46 -70 47 -37 53 -76 19
-119 -15 -19 -17 -28 -8 -31 17 -5 69 58 69 85 0 24 -93 262 -135 345 -39 76
-80 198 -109 325 -30 129 -76 426 -76 488 0 65 -32 106 -110 137 -148 59 -222
168 -309 454 -22 74 -46 125 -90 194 -69 107 -87 152 -96 236 -9 81 -51 124
-148 150 -64 17 -68 17 -86 1 -11 -10 -22 -29 -26 -43 -8 -34 -60 -109 -80
-117 -70 -26 -145 18 -145 85 0 60 -88 111 -150 88z"/>
<path d="M5797 3348 c-11 -137 -8 -236 9 -307 16 -65 16 -68 -5 -109 -27 -53
-27 -73 5 -152 14 -36 38 -94 52 -130 31 -78 107 -158 201 -210 131 -74 133
-75 146 -161 10 -66 21 -73 126 -74 91 -1 98 -3 209 -52 141 -63 526 -212 651
-253 118 -38 281 -74 434 -96 166 -24 495 -24 625 -1 231 42 373 92 495 172
82 55 249 226 323 332 34 49 79 112 99 142 47 65 128 148 155 157 14 4 34 -4
63 -25 58 -42 63 -39 20 12 l-36 42 48 22 c90 42 200 26 260 -39 28 -30 77
-129 97 -198 25 -83 30 -177 17 -298 -22 -196 15 -430 92 -577 47 -91 154
-191 257 -241 135 -66 208 -85 351 -91 344 -15 692 83 1086 307 172 97 216
132 271 215 26 38 76 103 111 144 35 40 74 99 88 130 43 97 104 215 128 247
13 17 56 55 95 84 90 67 203 220 162 220 -4 0 -25 -21 -46 -46 -38 -46 -139
-104 -179 -104 -28 0 -12 19 89 108 111 98 137 148 136 257 0 113 -90 360
-123 339 -6 -4 -5 -14 5 -29 25 -38 64 -165 71 -231 10 -87 -13 -161 -64 -207
-47 -42 -78 -60 -85 -49 -8 13 13 90 36 135 17 32 23 65 26 137 5 113 -9 196
-44 268 -27 55 -114 152 -136 152 -7 0 6 -18 29 -39 22 -21 48 -51 56 -67 24
-47 40 -204 28 -266 -12 -55 -44 -118 -60 -118 -6 0 -9 34 -8 78 1 65 -4 94
-36 187 -44 128 -144 311 -161 294 -4 -3 9 -39 29 -80 92 -195 124 -522 76
-758 -46 -221 -111 -380 -225 -545 -107 -158 -250 -287 -409 -371 -80 -42
-256 -110 -264 -101 -2 2 13 10 34 16 110 36 346 188 469 303 84 79 135 151
228 329 126 238 153 354 101 431 -14 20 -29 37 -34 37 -17 0 -20 -14 -7 -39 7
-14 16 -65 19 -112 5 -73 3 -90 -13 -117 -22 -36 -39 -39 -74 -16 -34 22 -42
1 -17 -40 23 -37 27 -80 10 -123 -15 -41 -89 -113 -116 -113 -27 0 -43 -27
-43 -71 0 -44 -35 -113 -72 -145 -25 -20 -38 -24 -64 -20 -29 6 -34 3 -53 -28
-32 -51 -46 -60 -71 -46 -19 10 -21 17 -15 48 4 21 8 71 8 112 2 61 -1 75 -13
75 -12 0 -14 -13 -12 -67 3 -51 -1 -77 -18 -115 -54 -123 -150 -154 -150 -48
0 76 -53 115 -156 115 -73 0 -63 -12 12 -16 72 -3 104 -31 111 -95 7 -68 -28
-127 -94 -159 -28 -14 -60 -33 -70 -43 -25 -22 -36 -21 -56 1 -18 19 -13 53
14 103 11 21 10 22 -3 12 -8 -7 -25 -33 -38 -59 -27 -51 -49 -69 -136 -107
-53 -23 -124 -36 -124 -23 0 3 8 20 19 38 21 37 34 108 25 132 -11 28 -24 6
-24 -38 0 -31 -6 -48 -22 -63 -26 -23 -157 -92 -179 -94 -8 -1 4 -7 26 -14 54
-18 189 -18 305 0 52 8 101 15 109 15 33 0 -1 -10 -104 -31 -153 -32 -352 -32
-444 -1 -135 44 -231 142 -293 295 -30 76 -33 90 -33 197 0 105 4 127 39 245
63 212 60 300 -16 535 -46 142 -111 234 -215 302 -111 74 -167 90 -323 95
-160 6 -230 -7 -354 -66 -109 -51 -179 -107 -277 -223 -127 -150 -295 -276
-436 -325 -74 -26 -88 -28 -253 -28 -159 0 -185 3 -280 28 -170 44 -283 83
-465 162 -182 79 -719 290 -956 375 -245 88 -375 157 -591 311 -76 54 -104 69
-132 69 -22 0 -38 6 -44 16 -6 11 -11 -11 -15 -68z"/>
<path d="M9567 3160 c4 -4 46 -14 92 -23 172 -33 354 -151 441 -287 74 -115
130 -296 130 -417 0 -67 -31 -253 -56 -333 -18 -62 -15 -183 6 -203 10 -10 11
1 6 53 -9 81 5 145 49 231 25 49 37 92 47 160 l13 94 95 1 c83 0 102 4 148 28
70 36 62 44 -11 11 -58 -27 -83 -27 -139 2 -44 22 -53 49 -53 158 0 80 -4 108
-20 140 -22 44 -120 123 -218 176 -66 35 -77 51 -52 79 31 34 77 26 140 -26
31 -25 59 -43 63 -40 14 14 -125 138 -192 171 -78 40 -130 44 -286 24 -57 -7
-106 -8 -148 -2 -35 6 -59 7 -55 3z"/>
<path d="M4131 2559 c-159 -29 -212 -77 -219 -198 -3 -57 0 -70 20 -98 12 -17
66 -88 118 -157 167 -220 208 -332 159 -433 -23 -48 -53 -68 -129 -84 -46 -10
-180 -68 -339 -147 -71 -35 -148 -112 -156 -155 -9 -45 -2 -122 10 -120 6 1
13 20 16 42 9 64 49 92 79 56 15 -18 42 -19 57 -4 7 7 19 9 28 5 13 -5 16 -23
14 -121 -2 -135 12 -172 31 -79 29 150 54 196 128 233 37 19 76 50 111 90 58
67 83 77 32 12 -17 -21 -44 -66 -59 -98 -23 -50 -27 -71 -27 -150 0 -75 3 -96
18 -110 16 -16 17 -15 17 36 0 50 3 57 38 90 72 69 167 147 233 194 37 26 82
65 100 88 21 26 55 52 96 72 45 21 69 39 80 61 22 44 43 66 64 66 9 0 43 -14
75 -30 46 -25 68 -30 106 -28 64 4 62 22 -4 29 -61 7 -98 23 -98 43 0 18 20
25 51 19 39 -7 107 15 124 41 22 34 10 229 -14 224 -9 -2 -15 -12 -13 -23 14
-92 13 -103 -2 -133 -9 -17 -30 -38 -46 -47 -40 -21 -113 -19 -138 3 -40 35
-102 263 -102 377 0 60 -16 93 -64 135 -69 61 -57 94 54 155 86 47 108 74 92
111 -7 13 -22 28 -34 33 -13 4 -108 11 -213 14 -160 4 -206 2 -294 -14z"/>
<path d="M11578 1960 c-12 -30 -18 -99 -9 -105 6 -3 13 10 16 28 8 40 2 100
-7 77z"/>
</g>
</svg>
